<svg xmlns="http://www.w3.org/2000/svg" viewBox="0 0 533.25 67.4"><defs><style>.cls-1{fill:#1a9ed9;stroke:#1a9ed9;stroke-miterlimit:10;}</style></defs><title>Asset 2</title><g id="Layer_2" data-name="Layer 2"><g id="Layer_1-2" data-name="Layer 1"><path d="M37.85,28.75v2.51q0,1.25-1.6,1.6l-4.37.57a12.58,12.58,0,0,1,.21,10.66,11.69,11.69,0,0,1-3,3.93,13.23,13.23,0,0,1-4.56,2.51,18.38,18.38,0,0,1-5.78.87,19.45,19.45,0,0,1-5.09-.65,6.85,6.85,0,0,0-1.86,1.62,2.85,2.85,0,0,0-.65,1.73,2.29,2.29,0,0,0,1.12,2.07,8,8,0,0,0,2.94,1,31.85,31.85,0,0,0,4.16.38q2.34.08,4.79.25a45,45,0,0,1,4.79.59,14.48,14.48,0,0,1,4.16,1.37,7.85,7.85,0,0,1,2.94,2.62,7.64,7.64,0,0,1,1.12,4.33A10.06,10.06,0,0,1,36,71.5a13,13,0,0,1-3.55,4.12,18.28,18.28,0,0,1-5.68,2.89,24.69,24.69,0,0,1-7.58,1.08,29,29,0,0,1-7.37-.84,17.3,17.3,0,0,1-5.24-2.24A9.77,9.77,0,0,1,3.4,73.27a7.71,7.71,0,0,1-1-3.86,6.94,6.94,0,0,1,1.79-4.83A12.35,12.35,0,0,1,9,61.43a7,7,0,0,1-2.72-2,5.88,5.88,0,0,1-.7-5.17,7.11,7.11,0,0,1,.93-1.79,9.54,9.54,0,0,1,1.54-1.69,10,10,0,0,1,2.13-1.41,11.82,11.82,0,0,1-4.45-4.24A11.63,11.63,0,0,1,4.18,39a11.84,11.84,0,0,1,1.08-5.11,11.3,11.3,0,0,1,3-3.91,13.83,13.83,0,0,1,4.62-2.49,18.85,18.85,0,0,1,5.87-.87,18.92,18.92,0,0,1,4.67.55,14.81,14.81,0,0,1,4,1.61ZM31,67.82a3.25,3.25,0,0,0-.8-2.28A5.32,5.32,0,0,0,28,64.17a13.87,13.87,0,0,0-3.13-.7q-1.79-.21-3.78-.32l-4-.23q-2.05-.11-4-.38A10.6,10.6,0,0,0,9.63,65a5.09,5.09,0,0,0-1.35,3.52A4.65,4.65,0,0,0,8.95,71a5.67,5.67,0,0,0,2,1.94,11.93,11.93,0,0,0,3.44,1.29,22.07,22.07,0,0,0,4.88.48,22.14,22.14,0,0,0,4.9-.49,12.31,12.31,0,0,0,3.67-1.41,6.9,6.9,0,0,0,2.3-2.17A5.06,5.06,0,0,0,31,67.82Zm-12.2-20.9a10.49,10.49,0,0,0,3.61-.57A7.36,7.36,0,0,0,25,44.75a6.54,6.54,0,0,0,1.6-2.45,8.9,8.9,0,0,0,.53-3.14A7.49,7.49,0,0,0,25,33.54a8.55,8.55,0,0,0-6.21-2.09q-4.1,0-6.25,2.09a7.49,7.49,0,0,0-2.15,5.62,8.63,8.63,0,0,0,.55,3.14,6.73,6.73,0,0,0,1.62,2.45,7.35,7.35,0,0,0,2.62,1.6A10.48,10.48,0,0,0,18.77,46.92Z" transform="translate(-2.36 -12.2)"/><path d="M51.3,34.95a17.35,17.35,0,0,1,4.48-6.18,9.79,9.79,0,0,1,6.5-2.22,10.13,10.13,0,0,1,2.34.27,6.3,6.3,0,0,1,2,.84l-.49,5.05a1.09,1.09,0,0,1-1.14,1,7.86,7.86,0,0,1-1.56-.23,10.71,10.71,0,0,0-2.32-.23,9.25,9.25,0,0,0-3.25.53,7.6,7.6,0,0,0-2.55,1.58,11.14,11.14,0,0,0-2,2.58,22.14,22.14,0,0,0-1.61,3.52V65.73h-6.8V27.23h3.88a2.14,2.14,0,0,1,1.52.42,2.57,2.57,0,0,1,.57,1.44Z" transform="translate(-2.36 -12.2)"/><path d="M87.21,26.62A19.64,19.64,0,0,1,94.81,28a16.29,16.29,0,0,1,5.78,4,17.52,17.52,0,0,1,3.67,6.25,24.86,24.86,0,0,1,1.27,8.19,24.81,24.81,0,0,1-1.27,8.21,17.54,17.54,0,0,1-3.67,6.23,16.07,16.07,0,0,1-5.78,4,19.88,19.88,0,0,1-7.6,1.39,20.12,20.12,0,0,1-7.66-1.39,16,16,0,0,1-5.79-4,17.54,17.54,0,0,1-3.67-6.23,24.8,24.8,0,0,1-1.27-8.21,24.85,24.85,0,0,1,1.27-8.19A17.52,17.52,0,0,1,73.76,32a16.25,16.25,0,0,1,5.79-4A19.88,19.88,0,0,1,87.21,26.62Zm0,34.35q5.7,0,8.51-3.82T98.53,46.5q0-6.88-2.81-10.72t-8.51-3.84a11.94,11.94,0,0,0-5,1,9.36,9.36,0,0,0-3.57,2.85,12.65,12.65,0,0,0-2.13,4.58,24.52,24.52,0,0,0-.7,6.14q0,6.84,2.83,10.66T87.21,61Z" transform="translate(-2.36 -12.2)"/><path d="M136.49,33.58a1.5,1.5,0,0,1-1.41.84A2.64,2.64,0,0,1,133.8,34q-.72-.42-1.77-.93a16.67,16.67,0,0,0-2.49-.95,11.89,11.89,0,0,0-3.42-.44,10.1,10.1,0,0,0-3.08.44,7.4,7.4,0,0,0-2.34,1.2,5.31,5.31,0,0,0-1.48,1.77,4.75,4.75,0,0,0-.51,2.19,3.64,3.64,0,0,0,.85,2.47,7.4,7.4,0,0,0,2.26,1.71A19.62,19.62,0,0,0,125,42.72q1.79.55,3.67,1.18t3.67,1.39a13.31,13.31,0,0,1,3.19,1.9A8.69,8.69,0,0,1,137.81,50a8.55,8.55,0,0,1,.85,4,12.58,12.58,0,0,1-.95,4.92,10.75,10.75,0,0,1-2.81,3.91,13.57,13.57,0,0,1-4.56,2.6,18.75,18.75,0,0,1-6.23.95,19.44,19.44,0,0,1-7.3-1.31,18.49,18.49,0,0,1-5.55-3.36l1.6-2.58a2.32,2.32,0,0,1,.72-.76,2,2,0,0,1,1.06-.27,2.55,2.55,0,0,1,1.44.53q.76.53,1.84,1.18a14,14,0,0,0,2.64,1.18,12.12,12.12,0,0,0,3.88.53,10.57,10.57,0,0,0,3.46-.51,7.26,7.26,0,0,0,2.47-1.39,5.5,5.5,0,0,0,1.46-2,6.26,6.26,0,0,0,.48-2.43,4,4,0,0,0-.85-2.64,7.22,7.22,0,0,0-2.26-1.79A18.41,18.41,0,0,0,126,49.41q-1.81-.55-3.69-1.16t-3.69-1.39a12.91,12.91,0,0,1-3.21-2A8.86,8.86,0,0,1,113.14,42a9.4,9.4,0,0,1-.85-4.2,10.24,10.24,0,0,1,.91-4.24A10.39,10.39,0,0,1,115.86,30a13.08,13.08,0,0,1,4.29-2.45,17.18,17.18,0,0,1,5.81-.91,18.38,18.38,0,0,1,6.82,1.2A16.15,16.15,0,0,1,138,31.11Z" transform="translate(-2.36 -12.2)"/><path d="M179.4,27.23,163.7,65.73h-6.08L141.93,27.23h5.51a2.15,2.15,0,0,1,1.37.42,2.1,2.1,0,0,1,.72,1l9.77,24.78q.46,1.41.8,2.74t.65,2.66q.3-1.33.65-2.66t.84-2.74l9.88-24.78a2.21,2.21,0,0,1,.76-1,2,2,0,0,1,1.25-.4Z" transform="translate(-2.36 -12.2)"/><path d="M215.8,60.33a12.85,12.85,0,0,1-3,2.64,18.66,18.66,0,0,1-3.74,1.84,23.73,23.73,0,0,1-4.12,1.08,25.19,25.19,0,0,1-4.22.36,19.58,19.58,0,0,1-7.35-1.35,16.14,16.14,0,0,1-5.81-4,18.13,18.13,0,0,1-3.82-6.44,26.19,26.19,0,0,1-1.37-8.82,22.42,22.42,0,0,1,1.24-7.52,17.72,17.72,0,0,1,3.55-6.06,16.36,16.36,0,0,1,5.66-4,18.6,18.6,0,0,1,7.52-1.46,17.34,17.34,0,0,1,6.4,1.16,14.49,14.49,0,0,1,5.09,3.34,15.34,15.34,0,0,1,3.36,5.4,20.56,20.56,0,0,1,1.22,7.31,4.41,4.41,0,0,1-.34,2.13,1.42,1.42,0,0,1-1.29.53H189a22.5,22.5,0,0,0,1,6.35,12.73,12.73,0,0,0,2.49,4.5,10,10,0,0,0,3.8,2.7,13,13,0,0,0,4.94.89,14.48,14.48,0,0,0,4.39-.59,20.9,20.9,0,0,0,3.17-1.27,24.16,24.16,0,0,0,2.22-1.27,3,3,0,0,1,1.54-.59,1.49,1.49,0,0,1,1.29.65Zm-5.47-18a13.35,13.35,0,0,0-.67-4.31,9.69,9.69,0,0,0-1.94-3.38,8.65,8.65,0,0,0-3.1-2.2,11.71,11.71,0,0,0-11.84,2.05,13.26,13.26,0,0,0-3.52,7.85Z" transform="translate(-2.36 -12.2)"/><path d="M231.08,32.82a22.91,22.91,0,0,1,2.66-2.55,17.58,17.58,0,0,1,3-2,15.16,15.16,0,0,1,3.34-1.25,15.9,15.9,0,0,1,3.82-.44,13.91,13.91,0,0,1,5.57,1,10.78,10.78,0,0,1,4,3,13.1,13.1,0,0,1,2.45,4.62,20.12,20.12,0,0,1,.84,6V65.73H250V41.22a10.36,10.36,0,0,0-2-6.78Q246,32,241.91,32a11.37,11.37,0,0,0-5.6,1.44,18.47,18.47,0,0,0-4.81,3.91V65.73h-6.8V27.23h4.07a1.67,1.67,0,0,1,1.79,1.41Z" transform="translate(-2.36 -12.2)"/><path d="M283.33,26.62a19.64,19.64,0,0,1,7.6,1.41,16.29,16.29,0,0,1,5.78,4,17.52,17.52,0,0,1,3.67,6.25,24.86,24.86,0,0,1,1.27,8.19,24.81,24.81,0,0,1-1.27,8.21,17.54,17.54,0,0,1-3.67,6.23,16.07,16.07,0,0,1-5.78,4,19.88,19.88,0,0,1-7.6,1.39,20.12,20.12,0,0,1-7.66-1.39,16,16,0,0,1-5.79-4,17.54,17.54,0,0,1-3.67-6.23,24.8,24.8,0,0,1-1.27-8.21,24.85,24.85,0,0,1,1.27-8.19A17.52,17.52,0,0,1,269.87,32a16.25,16.25,0,0,1,5.79-4A19.88,19.88,0,0,1,283.33,26.62Zm0,34.35q5.7,0,8.51-3.82t2.81-10.66q0-6.88-2.81-10.72t-8.51-3.84a11.94,11.94,0,0,0-5,1,9.36,9.36,0,0,0-3.57,2.85,12.65,12.65,0,0,0-2.13,4.58,24.52,24.52,0,0,0-.7,6.14q0,6.84,2.83,10.66T283.33,61Z" transform="translate(-2.36 -12.2)"/><path d="M316.61,34.95a17.35,17.35,0,0,1,4.48-6.18,9.79,9.79,0,0,1,6.5-2.22,10.13,10.13,0,0,1,2.34.27,6.3,6.3,0,0,1,2,.84l-.49,5.05a1.09,1.09,0,0,1-1.14,1,7.86,7.86,0,0,1-1.56-.23,10.71,10.71,0,0,0-2.32-.23,9.25,9.25,0,0,0-3.25.53,7.6,7.6,0,0,0-2.55,1.58,11.14,11.14,0,0,0-2,2.58A22.14,22.14,0,0,0,317,41.41V65.73h-6.8V27.23h3.88a2.14,2.14,0,0,1,1.52.42,2.57,2.57,0,0,1,.57,1.44Z" transform="translate(-2.36 -12.2)"/><path class="cls-1" d="M336.49,61.77a4.58,4.58,0,0,1,.34-1.76,4.53,4.53,0,0,1,.94-1.44,4.49,4.49,0,0,1,5-1A4.56,4.56,0,0,1,345.13,60a4.55,4.55,0,0,1,0,3.55,4.69,4.69,0,0,1-1,1.42,4.38,4.38,0,0,1-1.44,1,4.72,4.72,0,0,1-3.53,0,4.17,4.17,0,0,1-1.42-1,4.51,4.51,0,0,1-1.28-3.2Z" transform="translate(-2.36 -12.2)"/><path class="cls-1" d="M384.73,12.7v53h-3.82a1.63,1.63,0,0,1-1.73-1.33L378.61,60a19.87,19.87,0,0,1-5.33,4.54,13.56,13.56,0,0,1-6.91,1.73A13.16,13.16,0,0,1,360.68,65a11.79,11.79,0,0,1-4.36-3.55,16.88,16.88,0,0,1-2.77-5.83,30,30,0,0,1-1-8,25.17,25.17,0,0,1,1.08-7.51,18.5,18.5,0,0,1,3.1-6,14.37,14.37,0,0,1,5-4,14.64,14.64,0,0,1,6.61-1.46,13.32,13.32,0,0,1,5.74,1.13,13.92,13.92,0,0,1,4.27,3.15V12.7Zm-6.41,25.24a10.37,10.37,0,0,0-3.89-3.37,11.15,11.15,0,0,0-4.68-1,9.19,9.19,0,0,0-7.81,3.64q-2.74,3.64-2.74,10.37a26.36,26.36,0,0,0,.61,6.1,11.73,11.73,0,0,0,1.8,4.18,7.07,7.07,0,0,0,2.92,2.39,9.7,9.7,0,0,0,3.92.76A10.39,10.39,0,0,0,374,59.61a15.83,15.83,0,0,0,4.34-4.07Z" transform="translate(-2.36 -12.2)"/><path class="cls-1" d="M403,17.81a4.08,4.08,0,0,1-.38,1.75,5,5,0,0,1-1,1.44,4.62,4.62,0,0,1-1.48,1,4.5,4.5,0,0,1-1.78.36,4.25,4.25,0,0,1-1.75-.36,4.51,4.51,0,0,1-1.42-1,4.89,4.89,0,0,1-1-1.44,4.25,4.25,0,0,1-.36-1.75,4.5,4.5,0,0,1,.36-1.78,4.77,4.77,0,0,1,1-1.48,4.53,4.53,0,0,1,1.42-1,4.25,4.25,0,0,1,1.75-.36,4.51,4.51,0,0,1,1.78.36,4.64,4.64,0,0,1,1.48,1,4.89,4.89,0,0,1,1,1.48A4.32,4.32,0,0,1,403,17.81Zm-1.37,11.45V65.73h-6.41V29.26Z" transform="translate(-2.36 -12.2)"/><path class="cls-1" d="M442.94,30.7v2.38q0,1.19-1.51,1.51l-4.14.54a11.91,11.91,0,0,1,.2,10.1A11.09,11.09,0,0,1,434.66,49a12.54,12.54,0,0,1-4.32,2.38,17.43,17.43,0,0,1-5.47.83,18.42,18.42,0,0,1-4.82-.61,6.48,6.48,0,0,0-1.76,1.53,2.7,2.7,0,0,0-.61,1.64,2.17,2.17,0,0,0,1.06,2,7.59,7.59,0,0,0,2.79,1,30,30,0,0,0,3.94.36q2.21.07,4.54.23a42.65,42.65,0,0,1,4.54.56,13.75,13.75,0,0,1,3.94,1.3,7.44,7.44,0,0,1,2.79,2.48,7.24,7.24,0,0,1,1.06,4.1,9.54,9.54,0,0,1-1.17,4.54,12.29,12.29,0,0,1-3.37,3.91,17.32,17.32,0,0,1-5.38,2.74,23.38,23.38,0,0,1-7.18,1,27.45,27.45,0,0,1-7-.79,16.4,16.4,0,0,1-5-2.12,9.25,9.25,0,0,1-3-3.08,7.3,7.3,0,0,1-1-3.65A6.57,6.57,0,0,1,411,64.65a11.7,11.7,0,0,1,4.64-3,6.63,6.63,0,0,1-2.57-1.93,5.58,5.58,0,0,1-.67-4.9,6.75,6.75,0,0,1,.88-1.69,9,9,0,0,1,1.46-1.6,9.49,9.49,0,0,1,2-1.33,11.2,11.2,0,0,1-4.21-4A11,11,0,0,1,411,40.38a11.22,11.22,0,0,1,1-4.84,10.72,10.72,0,0,1,2.86-3.71,13.1,13.1,0,0,1,4.37-2.36,19.07,19.07,0,0,1,10-.31A14,14,0,0,1,433,30.7Zm-6.52,37a3.08,3.08,0,0,0-.76-2.16,5,5,0,0,0-2-1.3,13.13,13.13,0,0,0-3-.67q-1.69-.2-3.58-.31l-3.83-.22q-1.94-.11-3.74-.36a10,10,0,0,0-3.29,2.36,4.82,4.82,0,0,0-1.28,3.33,4.4,4.4,0,0,0,.63,2.29,5.37,5.37,0,0,0,1.93,1.84,11.29,11.29,0,0,0,3.26,1.22,23.63,23.63,0,0,0,9.27,0,11.69,11.69,0,0,0,3.47-1.33,6.54,6.54,0,0,0,2.18-2.05A4.8,4.8,0,0,0,436.43,67.71Zm-11.56-19.8a9.94,9.94,0,0,0,3.42-.54,7,7,0,0,0,2.48-1.51,6.19,6.19,0,0,0,1.51-2.32,8.45,8.45,0,0,0,.5-3,7.1,7.1,0,0,0-2-5.33,9.79,9.79,0,0,0-11.81,0,7.09,7.09,0,0,0-2,5.33,8.17,8.17,0,0,0,.52,3A6.37,6.37,0,0,0,419,45.85a7,7,0,0,0,2.48,1.51A9.94,9.94,0,0,0,424.87,47.91Z" transform="translate(-2.36 -12.2)"/><path class="cls-1" d="M457.74,17.81a4.08,4.08,0,0,1-.38,1.75,5,5,0,0,1-1,1.44,4.62,4.62,0,0,1-1.48,1,4.5,4.5,0,0,1-1.78.36,4.25,4.25,0,0,1-1.75-.36,4.51,4.51,0,0,1-1.42-1,4.89,4.89,0,0,1-1-1.44,4.25,4.25,0,0,1-.36-1.75A4.5,4.5,0,0,1,449,16a4.77,4.77,0,0,1,1-1.48,4.53,4.53,0,0,1,1.42-1,4.25,4.25,0,0,1,1.75-.36,4.51,4.51,0,0,1,1.78.36,4.64,4.64,0,0,1,1.48,1,4.89,4.89,0,0,1,1,1.48A4.32,4.32,0,0,1,457.74,17.81Zm-1.37,11.45V65.73H450V29.26Z" transform="translate(-2.36 -12.2)"/><path class="cls-1" d="M478.08,66.3a8.79,8.79,0,0,1-6.64-2.41q-2.32-2.41-2.32-6.95V34.62h-4.39a1.44,1.44,0,0,1-1-.34,1.33,1.33,0,0,1-.4-1.06V30.66l6-.76,1.48-11.27a1.57,1.57,0,0,1,.49-.88,1.42,1.42,0,0,1,1-.34h3.24V30h10.55v4.64H475.52V56.51a4.65,4.65,0,0,0,1.12,3.42A3.9,3.9,0,0,0,479.52,61a5.08,5.08,0,0,0,1.75-.27,7.49,7.49,0,0,0,1.28-.59q.54-.32.92-.59a1.2,1.2,0,0,1,.67-.27,1.11,1.11,0,0,1,.9.61L486.9,63a11.93,11.93,0,0,1-4,2.43A13.57,13.57,0,0,1,478.08,66.3Z" transform="translate(-2.36 -12.2)"/><path class="cls-1" d="M491.76,34.41a20.81,20.81,0,0,1,6.52-4.36A20.12,20.12,0,0,1,506,28.61a13.81,13.81,0,0,1,5.44,1,11.15,11.15,0,0,1,4,2.81,11.89,11.89,0,0,1,2.45,4.36,18.15,18.15,0,0,1,.83,5.62V65.73h-2.84a2.79,2.79,0,0,1-1.44-.31,2.08,2.08,0,0,1-.79-1.21l-.72-3.46a35.86,35.86,0,0,1-2.81,2.36,16.11,16.11,0,0,1-2.88,1.73A15.7,15.7,0,0,1,504,65.92a17.63,17.63,0,0,1-3.8.38,13.13,13.13,0,0,1-4-.59A9.22,9.22,0,0,1,493,63.93a8.38,8.38,0,0,1-2.2-3,10.5,10.5,0,0,1-.81-4.3,8,8,0,0,1,1.19-4.16A10.41,10.41,0,0,1,495,48.91a25.29,25.29,0,0,1,6.95-2.54,53,53,0,0,1,10.51-1.13V42.4q0-4.25-1.84-6.43a6.62,6.62,0,0,0-5.36-2.18,11.53,11.53,0,0,0-4,.59,14.91,14.91,0,0,0-2.77,1.33q-1.17.74-2,1.33a2.91,2.91,0,0,1-1.67.59,1.84,1.84,0,0,1-1.12-.34,3.13,3.13,0,0,1-.79-.85Zm20.7,14.9a53.43,53.43,0,0,0-7.54.7,21.46,21.46,0,0,0-5.08,1.46A7,7,0,0,0,497,53.59a4.57,4.57,0,0,0-.88,2.74,6,6,0,0,0,.47,2.48,4.61,4.61,0,0,0,1.28,1.71,5.12,5.12,0,0,0,1.91,1,8.74,8.74,0,0,0,2.36.31,13.06,13.06,0,0,0,3.1-.34,11.66,11.66,0,0,0,2.65-1,14.88,14.88,0,0,0,2.38-1.55,20.47,20.47,0,0,0,2.21-2.05Z" transform="translate(-2.36 -12.2)"/><path class="cls-1" d="M535.1,12.7v53h-6.41v-53Z" transform="translate(-2.36 -12.2)"/></g></g></svg>